<svg viewBox="0 0 1024 1176.463" xmlns="http://www.w3.org/2000/svg"><path d="M653.007 639.63c3.06.387 6.603.61 10.197.61 22.11 0 42.262-8.39 57.444-22.16l-.072.065c14.068-13.412 22.816-32.297 22.816-53.226 0-1.324-.035-2.638-.104-3.944l.008.182c.016-.585.025-1.273.025-1.964 0-20.34-7.744-38.872-20.445-52.807l.056.062c-15.406-13.48-35.71-21.7-57.934-21.7-3.775 0-7.495.237-11.146.698l.434-.045H608.68c-17.408 0-24.36-2.116-29.87-7.507-3.465-3.792-5.588-8.863-5.588-14.43 0-.444.014-.886.04-1.324l-.003.06c-.03-.456-.05-.988-.05-1.525 0-6.303 2.383-12.05 6.297-16.387l-.02.022c4.587-3.79 10.526-6.087 17.002-6.087 1.2 0 2.382.08 3.54.232l-.136-.015h131.822v-54.07h-121.76c-3.06-.39-6.6-.61-10.193-.61-22.1 0-42.238 8.39-57.405 22.158l.07-.063c-14.09 13.42-22.855 32.323-22.855 53.274 0 1.307.034 2.604.1 3.893l-.007-.18c-.015.565-.023 1.23-.023 1.896 0 20.36 7.743 38.915 20.446 52.877l-.058-.064c15.426 13.477 35.747 21.695 57.987 21.695 3.77 0 7.486-.236 11.133-.695l-.434.045h45.564c17.45 0 24.36 2.116 29.87 7.508 3.49 3.78 5.63 8.85 5.63 14.42 0 .448-.014.893-.04 1.335l.002-.06c.03.452.047.98.047 1.512 0 6.314-2.4 12.067-6.337 16.398l.018-.02c-4.566 3.79-10.487 6.09-16.946 6.09-1.206 0-2.393-.08-3.557-.235l.137.015H527.134L474.98 422.39c-3.04-10.647-8.337-19.822-15.37-27.356l.037.04c-10.722-10.432-25.38-16.864-41.54-16.864-1.388 0-2.765.047-4.13.14l.185-.01c-1.19-.084-2.577-.132-3.976-.132-16.145 0-30.784 6.45-41.48 16.916l.012-.01c-7.01 7.48-12.32 16.64-15.26 26.808l-.115.467-69.407 217.24H340.8l63.577-198.87c.524-2.006 1.347-3.764 2.432-5.326l-.037.055c1.84-2.016 4.476-3.275 7.408-3.275s5.57 1.26 7.402 3.266l.007.01c1.05 1.507 1.873 3.265 2.37 5.156l.026.115 63.535 198.872zm281.295 0l-63.535-198.872c-.524-2.006-1.347-3.764-2.432-5.326l.036.055c-1.838-2.015-4.475-3.274-7.407-3.274s-5.57 1.26-7.4 3.266l-.008.007c-1.05 1.508-1.873 3.266-2.37 5.157l-.026.115-63.536 198.87h-56.906l69.446-217.24c3.04-10.647 8.337-19.82 15.37-27.354l-.036.04c12.152-10.403 28.058-16.733 45.442-16.733 17.406 0 33.33 6.346 45.583 16.85l-.094-.078c6.996 7.48 12.294 16.642 15.218 26.808l.115.467 69.445 217.24zm-728.036-63.816c2.995 11.22 7.787 15.574 16.256 15.574 8.785 0 13.376-5.272 13.376-15.574V384.37h55.07v191.444c.42 2.702.66 5.82.66 8.993 0 16.897-6.81 32.204-17.836 43.325l.004-.004c-12.66 10.95-29.282 17.62-47.462 17.62-1.257 0-2.507-.033-3.748-.096l.174.007c-.652.022-1.417.034-2.186.034-17.51 0-33.463-6.656-45.47-17.576l.055.05c-12.477-14.176-21.046-32.07-23.86-51.82l-.06-.533-33.787-127.63c-2.955-11.222-7.747-15.574-16.213-15.574-8.785 0-13.418 5.272-13.418 15.575v191.443H32.794V448.185c-.42-2.703-.66-5.82-.66-8.993 0-16.897 6.81-32.204 17.835-43.325l-.005.004c12.658-10.948 29.28-17.618 47.46-17.618 1.258 0 2.508.032 3.75.095l-.174-.007c.653-.023 1.42-.035 2.187-.035 17.51 0 33.463 6.656 45.47 17.575l-.055-.05c12.46 14.185 21.025 32.074 23.857 51.815l.062.538z"/></svg>